<svg width="48" height="49" viewBox="0 0 48 49" fill="none" xmlns="http://www.w3.org/2000/svg">
<path d="M6.51203 46.0917C3.99703 46.0917 1.95703 36.2617 1.95703 24.1357C1.95703 12.0097 3.99703 2.17969 6.51203 2.17969H15.266C17.782 2.17969 19.821 12.0097 19.821 24.1357C19.821 36.2617 17.781 46.0917 15.266 46.0917H6.51203Z" fill="url(#paint0_linear_61_4271)"/>
<path d="M6.51203 46.0917C3.99703 46.0917 1.95703 36.2617 1.95703 24.1357C1.95703 12.0097 3.99703 2.17969 6.51203 2.17969H15.266C17.782 2.17969 19.821 12.0097 19.821 24.1357C19.821 36.2617 17.781 46.0917 15.266 46.0917H6.51203Z" fill="url(#paint1_linear_61_4271)" fill-opacity="0.6"/>
<path d="M2 24.1357C2 36.2617 4.04 46.0917 6.556 46.0917H15.31C12.794 46.0917 10.754 36.2617 10.754 24.1357C10.754 12.0097 12.794 2.17969 15.31 2.17969H6.556C4.04 2.17969 2 12.0097 2 24.1357Z" fill="url(#paint2_linear_61_4271)"/>
<path d="M2 24.1357C2 36.2617 4.04 46.0917 6.556 46.0917H15.31C12.794 46.0917 10.754 36.2617 10.754 24.1357C10.754 12.0097 12.794 2.17969 15.31 2.17969H6.556C4.04 2.17969 2 12.0097 2 24.1357Z" fill="url(#paint3_linear_61_4271)" fill-opacity="0.6"/>
<path d="M19.5799 46.0917C17.0639 46.0917 15.0249 36.2617 15.0249 24.1357C15.0249 12.0097 17.0649 2.17969 19.5799 2.17969H28.3339C30.8489 2.17969 32.8889 12.0097 32.8889 24.1357C32.8889 36.2617 30.8489 46.0917 28.3339 46.0917H19.5799Z" fill="url(#paint4_linear_61_4271)"/>
<path d="M19.5799 46.0917C17.0639 46.0917 15.0249 36.2617 15.0249 24.1357C15.0249 12.0097 17.0649 2.17969 19.5799 2.17969H28.3339C30.8489 2.17969 32.8889 12.0097 32.8889 24.1357C32.8889 36.2617 30.8489 46.0917 28.3339 46.0917H19.5799Z" fill="url(#paint5_linear_61_4271)" fill-opacity="0.6"/>
<path d="M15.0249 24.1357C15.0249 36.2617 17.0649 46.0917 19.5799 46.0917H28.3339C25.8179 46.0917 23.7779 36.2617 23.7779 24.1357C23.7779 12.0097 25.8179 2.17969 28.3339 2.17969H19.5799C17.0639 2.17969 15.0249 12.0097 15.0249 24.1357Z" fill="url(#paint6_linear_61_4271)"/>
<path d="M15.0249 24.1357C15.0249 36.2617 17.0649 46.0917 19.5799 46.0917H28.3339C25.8179 46.0917 23.7779 36.2617 23.7779 24.1357C23.7779 12.0097 25.8179 2.17969 28.3339 2.17969H19.5799C17.0639 2.17969 15.0249 12.0097 15.0249 24.1357Z" fill="url(#paint7_linear_61_4271)" fill-opacity="0.6"/>
<path d="M32.7801 46.0917C30.2651 46.0917 28.2251 36.2617 28.2251 24.1357C28.2251 12.0097 30.2651 2.17969 32.7811 2.17969H41.5341C44.0501 2.17969 46.0891 12.0097 46.0891 24.1357C46.0891 36.2617 44.0491 46.0917 41.5341 46.0917H32.7801Z" fill="url(#paint8_linear_61_4271)"/>
<path d="M32.7801 46.0917C30.2651 46.0917 28.2251 36.2617 28.2251 24.1357C28.2251 12.0097 30.2651 2.17969 32.7811 2.17969H41.5341C44.0501 2.17969 46.0891 12.0097 46.0891 24.1357C46.0891 36.2617 44.0491 46.0917 41.5341 46.0917H32.7801Z" fill="url(#paint9_linear_61_4271)" fill-opacity="0.6"/>
<path d="M28.2251 24.1357C28.2251 36.2617 30.2651 46.0917 32.7811 46.0917H41.5341C39.0181 46.0917 36.9791 36.2617 36.9791 24.1357C36.9791 12.0097 39.0191 2.17969 41.5341 2.17969H32.7801C30.2641 2.17969 28.2251 12.0097 28.2251 24.1357Z" fill="url(#paint10_linear_61_4271)"/>
<path d="M28.2251 24.1357C28.2251 36.2617 30.2651 46.0917 32.7811 46.0917H41.5341C39.0181 46.0917 36.9791 36.2617 36.9791 24.1357C36.9791 12.0097 39.0191 2.17969 41.5341 2.17969H32.7801C30.2641 2.17969 28.2251 12.0097 28.2251 24.1357Z" fill="url(#paint11_linear_61_4271)" fill-opacity="0.6"/>
<path d="M6.51203 46.0917C3.99703 46.0917 1.95703 36.2617 1.95703 24.1357C1.95703 12.0097 3.99703 2.17969 6.51203 2.17969H15.266C17.782 2.17969 19.821 12.0097 19.821 24.1357C19.821 36.2617 17.781 46.0917 15.266 46.0917H6.51203Z" fill="url(#paint12_linear_61_4271)" fill-opacity="0.2"/>
<path d="M2 24.1357C2 36.2617 4.04 46.0917 6.555 46.0917H15.309C12.793 46.0917 10.753 36.2617 10.753 24.1357C10.753 12.0097 12.793 2.17969 15.31 2.17969H6.555C4.04 2.17969 2 12.0097 2 24.1357Z" fill="url(#paint13_linear_61_4271)" fill-opacity="0.6"/>
<path d="M19.5789 46.0917C17.0629 46.0917 15.0229 36.2617 15.0229 24.1357C15.0229 12.0097 17.0629 2.17969 19.5799 2.17969H28.3329C30.8489 2.17969 32.888 12.0097 32.888 24.1357C32.888 36.2617 30.8489 46.0917 28.3329 46.0917H19.5789Z" fill="url(#paint14_linear_61_4271)" fill-opacity="0.2"/>
<path d="M15.0229 24.1357C15.0229 36.2617 17.0629 46.0917 19.5789 46.0917H28.332C25.816 46.0917 23.7769 36.2617 23.7769 24.1357C23.7769 12.0097 25.8169 2.17969 28.332 2.17969H19.5799C17.0639 2.17969 15.0239 12.0097 15.0239 24.1357H15.0229Z" fill="url(#paint15_linear_61_4271)" fill-opacity="0.6"/>
<path d="M32.7801 46.0917C30.2641 46.0917 28.2251 36.2617 28.2251 24.1357C28.2251 12.0097 30.2651 2.17969 32.7801 2.17969H41.5331C44.0491 2.17969 46.0891 12.0097 46.0891 24.1357C46.0891 36.2617 44.0491 46.0917 41.5331 46.0917H32.7801Z" fill="url(#paint16_linear_61_4271)" fill-opacity="0.2"/>
<path d="M28.2251 24.1357C28.2251 36.2617 30.2651 46.0917 32.7801 46.0917H41.5331C39.0171 46.0917 36.9781 36.2617 36.9781 24.1357C36.9781 12.0097 39.0181 2.17969 41.5331 2.17969H32.7801C30.2641 2.17969 28.2251 12.0097 28.2251 24.1357Z" fill="url(#paint17_linear_61_4271)" fill-opacity="0.6"/>
<defs>
<linearGradient id="paint0_linear_61_4271" x1="1.95703" y1="44.0427" x2="46.089" y2="44.0427" gradientUnits="userSpaceOnUse">
<stop stop-color="#FFB800"/>
<stop offset="1" stop-color="#F8367C"/>
</linearGradient>
<linearGradient id="paint1_linear_61_4271" x1="24.023" y1="49.5847" x2="24.023" y2="12.0597" gradientUnits="userSpaceOnUse">
<stop stop-color="white"/>
<stop offset="0.22" stop-color="white" stop-opacity="0.76"/>
<stop offset="0.6" stop-color="white" stop-opacity="0.36"/>
<stop offset="0.87" stop-color="white" stop-opacity="0.1"/>
<stop offset="1" stop-color="white" stop-opacity="0"/>
</linearGradient>
<linearGradient id="paint2_linear_61_4271" x1="1.957" y1="44.0427" x2="46.089" y2="44.0427" gradientUnits="userSpaceOnUse">
<stop stop-color="#FFB800"/>
<stop offset="1" stop-color="#F8367C"/>
</linearGradient>
<linearGradient id="paint3_linear_61_4271" x1="24.023" y1="49.5847" x2="24.023" y2="12.0597" gradientUnits="userSpaceOnUse">
<stop stop-color="white"/>
<stop offset="0.22" stop-color="white" stop-opacity="0.76"/>
<stop offset="0.6" stop-color="white" stop-opacity="0.36"/>
<stop offset="0.87" stop-color="white" stop-opacity="0.1"/>
<stop offset="1" stop-color="white" stop-opacity="0"/>
</linearGradient>
<linearGradient id="paint4_linear_61_4271" x1="1.9569" y1="44.0427" x2="46.0889" y2="44.0427" gradientUnits="userSpaceOnUse">
<stop stop-color="#FFB800"/>
<stop offset="1" stop-color="#F8367C"/>
</linearGradient>
<linearGradient id="paint5_linear_61_4271" x1="24.0229" y1="49.5847" x2="24.0229" y2="12.0597" gradientUnits="userSpaceOnUse">
<stop stop-color="white"/>
<stop offset="0.22" stop-color="white" stop-opacity="0.76"/>
<stop offset="0.6" stop-color="white" stop-opacity="0.36"/>
<stop offset="0.87" stop-color="white" stop-opacity="0.1"/>
<stop offset="1" stop-color="white" stop-opacity="0"/>
</linearGradient>
<linearGradient id="paint6_linear_61_4271" x1="1.9569" y1="44.0427" x2="46.0889" y2="44.0427" gradientUnits="userSpaceOnUse">
<stop stop-color="#FFB800"/>
<stop offset="1" stop-color="#F8367C"/>
</linearGradient>
<linearGradient id="paint7_linear_61_4271" x1="24.0229" y1="49.5847" x2="24.0229" y2="12.0597" gradientUnits="userSpaceOnUse">
<stop stop-color="white"/>
<stop offset="0.22" stop-color="white" stop-opacity="0.76"/>
<stop offset="0.6" stop-color="white" stop-opacity="0.36"/>
<stop offset="0.87" stop-color="white" stop-opacity="0.1"/>
<stop offset="1" stop-color="white" stop-opacity="0"/>
</linearGradient>
<linearGradient id="paint8_linear_61_4271" x1="1.9571" y1="44.0427" x2="46.0891" y2="44.0427" gradientUnits="userSpaceOnUse">
<stop stop-color="#FFB800"/>
<stop offset="1" stop-color="#F8367C"/>
</linearGradient>
<linearGradient id="paint9_linear_61_4271" x1="24.0231" y1="49.5847" x2="24.0231" y2="12.0597" gradientUnits="userSpaceOnUse">
<stop stop-color="white"/>
<stop offset="0.22" stop-color="white" stop-opacity="0.76"/>
<stop offset="0.6" stop-color="white" stop-opacity="0.36"/>
<stop offset="0.87" stop-color="white" stop-opacity="0.1"/>
<stop offset="1" stop-color="white" stop-opacity="0"/>
</linearGradient>
<linearGradient id="paint10_linear_61_4271" x1="1.95712" y1="44.0427" x2="46.0891" y2="44.0427" gradientUnits="userSpaceOnUse">
<stop stop-color="#FFB800"/>
<stop offset="1" stop-color="#F8367C"/>
</linearGradient>
<linearGradient id="paint11_linear_61_4271" x1="24.0231" y1="49.5847" x2="24.0231" y2="12.0597" gradientUnits="userSpaceOnUse">
<stop stop-color="white"/>
<stop offset="0.22" stop-color="white" stop-opacity="0.76"/>
<stop offset="0.6" stop-color="white" stop-opacity="0.36"/>
<stop offset="0.87" stop-color="white" stop-opacity="0.1"/>
<stop offset="1" stop-color="white" stop-opacity="0"/>
</linearGradient>
<linearGradient id="paint12_linear_61_4271" x1="11.168" y1="24.1797" x2="19.418" y2="24.1797" gradientUnits="userSpaceOnUse">
<stop stop-color="white"/>
<stop offset="1" stop-color="white" stop-opacity="0"/>
</linearGradient>
<linearGradient id="paint13_linear_61_4271" x1="9.692" y1="2.17969" x2="30.122" y2="32.3437" gradientUnits="userSpaceOnUse">
<stop stop-color="white"/>
<stop offset="1" stop-color="white" stop-opacity="0.1"/>
</linearGradient>
<linearGradient id="paint14_linear_61_4271" x1="24.234" y1="24.1797" x2="33.166" y2="24.1797" gradientUnits="userSpaceOnUse">
<stop stop-color="white"/>
<stop offset="1" stop-color="white" stop-opacity="0"/>
</linearGradient>
<linearGradient id="paint15_linear_61_4271" x1="22.7159" y1="2.17969" x2="43.1449" y2="32.3437" gradientUnits="userSpaceOnUse">
<stop stop-color="white"/>
<stop offset="1" stop-color="white" stop-opacity="0.1"/>
</linearGradient>
<linearGradient id="paint16_linear_61_4271" x1="37.4351" y1="24.1797" x2="46.0001" y2="24.1797" gradientUnits="userSpaceOnUse">
<stop stop-color="white"/>
<stop offset="1" stop-color="white" stop-opacity="0"/>
</linearGradient>
<linearGradient id="paint17_linear_61_4271" x1="35.9171" y1="2.17969" x2="56.3461" y2="32.3437" gradientUnits="userSpaceOnUse">
<stop stop-color="white"/>
<stop offset="1" stop-color="white" stop-opacity="0.1"/>
</linearGradient>
</defs>
</svg>
