<svg width="180" height="73" viewBox="0 0 180 73" fill="none" xmlns="http://www.w3.org/2000/svg">
<g clip-path="url(#clip0_61_2871)">
<path d="M19.929 46.263C18.765 46.8473 17.5366 47.2937 16.269 47.593C15.012 47.889 13.682 48 12.388 48C10.983 48 9.65202 47.778 8.50602 47.335C7.32402 46.928 6.28902 46.263 5.40102 45.449C4.55102 44.599 3.84902 43.639 3.36802 42.455C2.88802 41.272 2.66602 39.979 2.66602 38.5C2.66602 37.021 2.88802 35.728 3.36802 34.545C3.84802 33.362 4.55102 32.401 5.40102 31.551C6.25102 30.701 7.28702 30.109 8.50602 29.665C9.75393 29.2286 11.066 29.0038 12.388 29C13.829 29 15.16 29.185 16.38 29.517C17.6 29.85 18.672 30.442 19.559 31.292L16.749 34.322C16.195 33.769 15.567 33.325 14.939 33.066C14.31 32.807 13.386 32.659 12.425 32.659C11.575 32.659 10.798 32.807 10.133 33.066C9.43102 33.362 8.87602 33.769 8.35902 34.286C7.84593 34.7894 7.46471 35.4114 7.24902 36.097C6.95402 36.8 6.88002 37.613 6.88002 38.389C6.88002 39.239 7.02802 40.016 7.25002 40.718C7.54502 41.42 7.91502 42.048 8.35902 42.529C8.87602 43.047 9.43102 43.453 10.133 43.749C10.835 44.045 11.575 44.156 12.425 44.156C13.275 44.156 14.015 44.045 14.68 43.86C15.271 43.675 15.789 43.49 16.195 43.268V40.348H12.98V36.688H20.004V46.263H19.929ZM42.477 40.607C42.477 41.679 42.33 42.677 41.997 43.564C41.664 44.451 41.184 45.264 40.555 45.893C39.8746 46.5765 39.0555 47.106 38.153 47.446C37.228 47.816 36.083 48 34.863 48C33.606 48 32.533 47.815 31.536 47.446C30.612 47.076 29.798 46.558 29.133 45.893C28.468 45.228 28.024 44.451 27.692 43.564C27.359 42.677 27.211 41.679 27.211 40.607V29.555H31.203V40.459C31.203 41.014 31.314 41.531 31.499 42.012C31.684 42.492 31.906 42.899 32.239 43.232C32.5802 43.5727 32.9808 43.8482 33.421 44.045C33.901 44.23 34.345 44.34 34.863 44.34C35.38 44.34 35.898 44.23 36.304 44.045C36.711 43.86 37.154 43.565 37.414 43.231C37.746 42.899 37.968 42.492 38.153 42.011C38.337 41.531 38.448 41.014 38.448 40.459V29.554H42.44V40.607H42.477ZM49.943 29.48H53.936V47.52H49.943V29.48ZM61.328 29.48H67.279C68.721 29.48 70.089 29.628 71.419 29.961C72.75 30.294 73.859 30.811 74.857 31.514C75.855 32.216 76.595 33.14 77.149 34.323C77.704 35.506 77.999 36.91 77.999 38.537C77.999 39.979 77.704 41.309 77.149 42.381C76.6089 43.4694 75.8396 44.428 74.894 45.191C73.97 45.93 72.861 46.521 71.678 46.928C70.4315 47.3037 69.1359 47.4908 67.834 47.483H61.328V29.48ZM65.32 43.86H67.39C68.314 43.86 69.165 43.749 69.978 43.564C70.791 43.379 71.42 43.047 72.048 42.64C72.602 42.233 73.083 41.642 73.416 40.94C73.748 40.237 73.933 39.387 73.933 38.352C73.933 37.465 73.748 36.726 73.416 36.06C73.083 35.395 72.602 34.877 72.048 34.434C71.4605 34.0023 70.7949 33.6885 70.088 33.51C69.3077 33.2832 68.4986 33.1711 67.686 33.177H65.357L65.32 43.86ZM84.617 29.48H96.853V33.14H88.573V36.504H96.409V40.164H88.572V43.823H97.296V47.483H84.654V29.48H84.617ZM102.471 29.48H106.796L109.642 41.05H109.679L113.412 29.48H117.109L120.842 41.346H120.879L123.91 29.481H127.94L122.69 47.519H119.142L115.15 35.062H115.113L111.12 47.52H107.683L102.471 29.482V29.48ZM133.596 29.48H137.588V47.52H133.596V29.48ZM144.98 29.48H151.967C152.891 29.48 153.741 29.591 154.591 29.776C155.442 29.961 156.144 30.256 156.735 30.663C157.327 31.07 157.844 31.661 158.251 32.363C158.657 33.066 158.805 33.953 158.805 34.988C158.805 36.245 158.473 37.318 157.807 38.204C157.142 39.091 156.181 39.646 154.887 39.904L159.471 47.482H154.702L150.969 40.274H149.01V47.483H145.017L144.98 29.481V29.48ZM148.973 36.947H151.301C151.671 36.947 152.041 36.947 152.41 36.91C152.817 36.874 153.15 36.8 153.482 36.689C153.815 36.578 154.074 36.356 154.296 36.097C154.517 35.802 154.628 35.432 154.628 34.988C154.628 34.508 154.517 34.138 154.333 33.916C154.174 33.6434 153.926 33.4345 153.63 33.325C153.308 33.1941 152.974 33.095 152.632 33.029C152.263 32.992 151.893 32.919 151.56 32.919H148.973V36.984V36.947ZM165.459 29.48H177.694V33.14H169.451V36.504H177.288V40.164H169.451V43.823H178.175V47.483H165.459V29.48Z" fill="#0D0D12"/>
</g>
<defs>
<clipPath id="clip0_61_2871">
<rect width="180" height="71.8039" fill="white" transform="translate(0 0.893555)"/>
</clipPath>
</defs>
</svg>
