<svg width="48" height="49" viewBox="0 0 48 49" fill="none" xmlns="http://www.w3.org/2000/svg">
    <g clip-path="url(#clip0_61_4313)">
        <g clip-path="url(#clip1_61_4313)">
            <path d="M5.771 35.1135L21.275 44.0725V41.1925L10.93 35.2115L21.275 29.2385V26.1465L8.267 33.6565V33.6725L5.771 35.1135Z" fill="url(#paint0_linear_61_4313)"/>
            <path d="M5.771 35.1135L21.275 44.0725V41.1925L10.93 35.2115L21.275 29.2385V26.1465L8.267 33.6565V33.6725L5.771 35.1135Z" fill="url(#paint1_linear_61_4313)" fill-opacity="0.6"/>
            <path d="M36.9859 35.2185L26.6309 41.2035V44.0835L42.1559 35.1135V35.1055L26.6319 26.1475V29.2395L36.9859 35.2185Z" fill="url(#paint2_linear_61_4313)"/>
            <path d="M36.9859 35.2185L26.6309 41.2035V44.0835L42.1559 35.1135V35.1055L26.6319 26.1475V29.2395L36.9859 35.2185Z" fill="url(#paint3_linear_61_4313)" fill-opacity="0.6"/>
            <path d="M39.4811 12.5441L23.9641 3.57715L23.9581 3.58015L23.9541 21.5081L26.6311 19.9631V7.99915L36.9871 13.9841L39.4811 12.5441Z" fill="url(#paint4_linear_61_4313)"/>
            <path d="M39.4811 12.5441L23.9641 3.57715L23.9581 3.58015L23.9541 21.5081L26.6311 19.9631V7.99915L36.9871 13.9841L39.4811 12.5441Z" fill="url(#paint5_linear_61_4313)" fill-opacity="0.6"/>
            <path d="M26.6318 26.1475L42.1558 35.1055V17.1855L39.6598 18.6255V30.5775L29.3098 24.6015L26.6318 26.1475Z" fill="url(#paint6_linear_61_4313)"/>
            <path d="M26.6318 26.1475L42.1558 35.1055V17.1855L39.6598 18.6255V30.5775L29.3098 24.6015L26.6318 26.1475Z" fill="url(#paint7_linear_61_4313)" fill-opacity="0.6"/>
            <path d="M23.953 3.58398L8.43604 12.551L10.93 13.991L21.275 8.01098V19.964L23.955 21.509L23.953 3.58398Z" fill="url(#paint8_linear_61_4313)"/>
            <path d="M23.953 3.58398L8.43604 12.551L10.93 13.991L21.275 8.01098V19.964L23.955 21.509L23.953 3.58398Z" fill="url(#paint9_linear_61_4313)" fill-opacity="0.6"/>
            <path d="M8.267 30.5653V18.6373L5.771 17.1963V35.1133L8.267 33.6733V33.6573L21.275 26.1473L18.597 24.6013L8.267 30.5653Z" fill="url(#paint10_linear_61_4313)"/>
            <path d="M8.267 30.5653V18.6373L5.771 17.1963V35.1133L8.267 33.6733V33.6573L21.275 26.1473L18.597 24.6013L8.267 30.5653Z" fill="url(#paint11_linear_61_4313)" fill-opacity="0.6"/>
            <path fill-rule="evenodd" clip-rule="evenodd" d="M3.18018 12.6074V36.5954L23.9532 48.5884V24.6014L3.18018 12.6074ZM8.26718 18.6374L18.5972 24.6014L21.2752 26.1474V44.0714L5.77118 35.1144V17.1964L8.26718 18.6374Z" fill="url(#paint12_linear_61_4313)"/>
            <path fill-rule="evenodd" clip-rule="evenodd" d="M3.18018 12.6074V36.5954L23.9532 48.5884V24.6014L3.18018 12.6074ZM8.26718 18.6374L18.5972 24.6014L21.2752 26.1474V44.0714L5.77118 35.1144V17.1964L8.26718 18.6374Z" fill="url(#paint13_linear_61_4313)" fill-opacity="0.6"/>
            <path fill-rule="evenodd" clip-rule="evenodd" d="M23.9641 24.6013L30.3641 20.9023L24.1091 24.5123L23.9531 24.6013V25.1933L23.9591 48.5853L44.7281 36.5953V12.6133L23.9641 24.6013ZM26.6311 41.2033V26.1473L29.3101 24.6013L39.6601 18.6253L42.1571 17.1853V35.1133L26.6321 44.0833L26.6311 41.2033Z" fill="url(#paint14_linear_61_4313)"/>
            <path fill-rule="evenodd" clip-rule="evenodd" d="M23.9641 24.6013L30.3641 20.9023L24.1091 24.5123L23.9531 24.6013V25.1933L23.9591 48.5853L44.7281 36.5953V12.6133L23.9641 24.6013ZM26.6311 41.2033V26.1473L29.3101 24.6013L39.6601 18.6253L42.1571 17.1853V35.1133L26.6321 44.0833L26.6311 41.2033Z" fill="url(#paint15_linear_61_4313)" fill-opacity="0.6"/>
            <path d="M24.11 24.5113L44.723 12.6043L23.959 0.616281L23.958 3.58028L23.964 3.57728L39.481 12.5443L36.987 13.9843L26.631 19.9633L23.954 21.5083L21.275 19.9633L10.93 13.9903L8.43604 12.5503L23.953 3.58328L23.954 0.613281L3.18604 12.6043L23.953 24.6013L24.109 24.5113H24.11Z" fill="url(#paint16_linear_61_4313)"/>
            <path d="M24.11 24.5113L44.723 12.6043L23.959 0.616281L23.958 3.58028L23.964 3.57728L39.481 12.5443L36.987 13.9843L26.631 19.9633L23.954 21.5083L21.275 19.9633L10.93 13.9903L8.43604 12.5503L23.953 3.58328L23.954 0.613281L3.18604 12.6043L23.953 24.6013L24.109 24.5113H24.11Z" fill="url(#paint17_linear_61_4313)" fill-opacity="0.6"/>
            <path d="M5.77002 35.1135L21.273 44.0725V41.1925L10.928 35.2125L21.273 29.2395V26.1475L8.26602 33.6575V33.6735L5.77002 35.1135Z" fill="url(#paint18_linear_61_4313)" fill-opacity="0.4"/>
            <path d="M36.9839 35.2185L26.6299 41.2035V44.0835L42.1539 35.1135V35.1055L26.6299 26.1475V29.2395L36.9839 35.2185Z" fill="url(#paint19_linear_61_4313)" fill-opacity="0.4"/>
            <path d="M39.4801 12.5441L23.9631 3.57715L23.9571 3.58015L23.9531 21.5081L26.6301 19.9631V7.99915L36.9861 13.9841L39.4801 12.5441Z" fill="url(#paint20_linear_61_4313)" fill-opacity="0.6"/>
            <path d="M26.6309 26.1476L42.1549 35.1056V17.1846L39.6589 18.6256V30.5776L29.3089 24.6016L26.6309 26.1476Z" fill="url(#paint21_linear_61_4313)" fill-opacity="0.6"/>
            <path d="M23.9511 3.58398L8.43408 12.551L10.9281 13.991L21.2731 8.01098V19.964L23.9511 21.51V3.58398Z" fill="url(#paint22_linear_61_4313)" fill-opacity="0.6"/>
            <path d="M8.26602 30.5653V18.6373L5.77002 17.1963V35.1133L8.26602 33.6733V33.6573L21.273 26.1473L18.595 24.6013L8.26602 30.5653Z" fill="url(#paint23_linear_61_4313)" fill-opacity="0.6"/>
            <path fill-rule="evenodd" clip-rule="evenodd" d="M3.18018 12.6074V36.5954L23.9532 48.5894V24.6014L3.18018 12.6074ZM8.26818 18.6374L18.5982 24.6014L21.2762 26.1474V44.0714L5.77218 35.1144V17.1964L8.26818 18.6374Z" fill="url(#paint24_linear_61_4313)" fill-opacity="0.6"/>
            <path fill-rule="evenodd" clip-rule="evenodd" d="M3.18018 12.6074V36.5954L23.9532 48.5894V24.6014L3.18018 12.6074ZM8.26818 18.6374L18.5982 24.6014L21.2762 26.1474V44.0714L5.77218 35.1144V17.1964L8.26818 18.6374Z" fill="url(#paint25_linear_61_4313)" fill-opacity="0.4"/>
            <path fill-rule="evenodd" clip-rule="evenodd" d="M31.5501 20.2173L23.9631 24.6013L30.3631 20.9023L24.1081 24.5123L23.9531 24.6013V25.1943L23.9581 48.5863L44.7281 36.5953V12.6133L31.5501 20.2173ZM26.6301 41.2033V26.1473L29.3101 24.6013L39.6601 18.6253L42.1561 17.1853V35.1133L26.6321 44.0833V41.2033H26.6301Z" fill="url(#paint26_linear_61_4313)" fill-opacity="0.6"/>
            <path fill-rule="evenodd" clip-rule="evenodd" d="M31.5501 20.2173L23.9631 24.6013L30.3631 20.9023L24.1081 24.5123L23.9531 24.6013V25.1943L23.9581 48.5863L44.7281 36.5953V12.6133L31.5501 20.2173ZM26.6301 41.2033V26.1473L29.3101 24.6013L39.6601 18.6253L42.1561 17.1853V35.1133L26.6321 44.0833V41.2033H26.6301Z" fill="url(#paint27_linear_61_4313)" fill-opacity="0.2"/>
            <path d="M24.1081 24.5113L44.7201 12.6043L23.9581 0.617281L23.9571 3.58028L23.9621 3.57728L39.4801 12.5443L36.9851 13.9843L26.6301 19.9633L23.9531 21.5093L21.2741 19.9633L10.9291 13.9903L8.43408 12.5503L23.9521 3.58328V0.613281L3.18408 12.6043L23.9521 24.6013L24.1081 24.5113Z" fill="url(#paint28_linear_61_4313)" fill-opacity="0.5"/>
        </g>
    </g>
    <defs>
        <linearGradient id="paint0_linear_61_4313" x1="3.18" y1="46.3505" x2="44.728" y2="46.3505" gradientUnits="userSpaceOnUse">
            <stop stop-color="#FFB800"/>
            <stop offset="1" stop-color="#F8367C"/>
        </linearGradient>
        <linearGradient id="paint1_linear_61_4313" x1="23.953" y1="52.4055" x2="23.953" y2="11.4085" gradientUnits="userSpaceOnUse">
            <stop stop-color="white"/>
            <stop offset="0.22" stop-color="white" stop-opacity="0.76"/>
            <stop offset="0.6" stop-color="white" stop-opacity="0.36"/>
            <stop offset="0.87" stop-color="white" stop-opacity="0.1"/>
            <stop offset="1" stop-color="white" stop-opacity="0"/>
        </linearGradient>
        <linearGradient id="paint2_linear_61_4313" x1="3.17986" y1="46.3505" x2="44.7279" y2="46.3505" gradientUnits="userSpaceOnUse">
            <stop stop-color="#FFB800"/>
            <stop offset="1" stop-color="#F8367C"/>
        </linearGradient>
        <linearGradient id="paint3_linear_61_4313" x1="23.9529" y1="52.4055" x2="23.9529" y2="11.4085" gradientUnits="userSpaceOnUse">
            <stop stop-color="white"/>
            <stop offset="0.22" stop-color="white" stop-opacity="0.76"/>
            <stop offset="0.6" stop-color="white" stop-opacity="0.36"/>
            <stop offset="0.87" stop-color="white" stop-opacity="0.1"/>
            <stop offset="1" stop-color="white" stop-opacity="0"/>
        </linearGradient>
        <linearGradient id="paint4_linear_61_4313" x1="3.1801" y1="46.3501" x2="44.7281" y2="46.3501" gradientUnits="userSpaceOnUse">
            <stop stop-color="#FFB800"/>
            <stop offset="1" stop-color="#F8367C"/>
        </linearGradient>
        <linearGradient id="paint5_linear_61_4313" x1="23.9531" y1="52.4051" x2="23.9531" y2="11.4081" gradientUnits="userSpaceOnUse">
            <stop stop-color="white"/>
            <stop offset="0.22" stop-color="white" stop-opacity="0.76"/>
            <stop offset="0.6" stop-color="white" stop-opacity="0.36"/>
            <stop offset="0.87" stop-color="white" stop-opacity="0.1"/>
            <stop offset="1" stop-color="white" stop-opacity="0"/>
        </linearGradient>
        <linearGradient id="paint6_linear_61_4313" x1="3.17984" y1="46.3506" x2="44.7278" y2="46.3506" gradientUnits="userSpaceOnUse">
            <stop stop-color="#FFB800"/>
            <stop offset="1" stop-color="#F8367C"/>
        </linearGradient>
        <linearGradient id="paint7_linear_61_4313" x1="23.9528" y1="52.4056" x2="23.9528" y2="11.4085" gradientUnits="userSpaceOnUse">
            <stop stop-color="white"/>
            <stop offset="0.22" stop-color="white" stop-opacity="0.76"/>
            <stop offset="0.6" stop-color="white" stop-opacity="0.36"/>
            <stop offset="0.87" stop-color="white" stop-opacity="0.1"/>
            <stop offset="1" stop-color="white" stop-opacity="0"/>
        </linearGradient>
        <linearGradient id="paint8_linear_61_4313" x1="3.18003" y1="46.351" x2="44.728" y2="46.351" gradientUnits="userSpaceOnUse">
            <stop stop-color="#FFB800"/>
            <stop offset="1" stop-color="#F8367C"/>
        </linearGradient>
        <linearGradient id="paint9_linear_61_4313" x1="23.953" y1="52.406" x2="23.953" y2="11.409" gradientUnits="userSpaceOnUse">
            <stop stop-color="white"/>
            <stop offset="0.22" stop-color="white" stop-opacity="0.76"/>
            <stop offset="0.6" stop-color="white" stop-opacity="0.36"/>
            <stop offset="0.87" stop-color="white" stop-opacity="0.1"/>
            <stop offset="1" stop-color="white" stop-opacity="0"/>
        </linearGradient>
        <linearGradient id="paint10_linear_61_4313" x1="3.18" y1="46.3503" x2="44.728" y2="46.3503" gradientUnits="userSpaceOnUse">
            <stop stop-color="#FFB800"/>
            <stop offset="1" stop-color="#F8367C"/>
        </linearGradient>
        <linearGradient id="paint11_linear_61_4313" x1="23.953" y1="52.4053" x2="23.953" y2="11.4083" gradientUnits="userSpaceOnUse">
            <stop stop-color="white"/>
            <stop offset="0.22" stop-color="white" stop-opacity="0.76"/>
            <stop offset="0.6" stop-color="white" stop-opacity="0.36"/>
            <stop offset="0.87" stop-color="white" stop-opacity="0.1"/>
            <stop offset="1" stop-color="white" stop-opacity="0"/>
        </linearGradient>
        <linearGradient id="paint12_linear_61_4313" x1="3.18018" y1="46.3504" x2="44.7282" y2="46.3504" gradientUnits="userSpaceOnUse">
            <stop stop-color="#FFB800"/>
            <stop offset="1" stop-color="#F8367C"/>
        </linearGradient>
        <linearGradient id="paint13_linear_61_4313" x1="23.9532" y1="52.4054" x2="23.9532" y2="11.4084" gradientUnits="userSpaceOnUse">
            <stop stop-color="white"/>
            <stop offset="0.22" stop-color="white" stop-opacity="0.76"/>
            <stop offset="0.6" stop-color="white" stop-opacity="0.36"/>
            <stop offset="0.87" stop-color="white" stop-opacity="0.1"/>
            <stop offset="1" stop-color="white" stop-opacity="0"/>
        </linearGradient>
        <linearGradient id="paint14_linear_61_4313" x1="3.18012" y1="46.3503" x2="44.7281" y2="46.3503" gradientUnits="userSpaceOnUse">
            <stop stop-color="#FFB800"/>
            <stop offset="1" stop-color="#F8367C"/>
        </linearGradient>
        <linearGradient id="paint15_linear_61_4313" x1="23.9531" y1="52.4053" x2="23.9531" y2="11.4083" gradientUnits="userSpaceOnUse">
            <stop stop-color="white"/>
            <stop offset="0.22" stop-color="white" stop-opacity="0.76"/>
            <stop offset="0.6" stop-color="white" stop-opacity="0.36"/>
            <stop offset="0.87" stop-color="white" stop-opacity="0.1"/>
            <stop offset="1" stop-color="white" stop-opacity="0"/>
        </linearGradient>
        <linearGradient id="paint16_linear_61_4313" x1="3.18004" y1="46.3503" x2="44.728" y2="46.3503" gradientUnits="userSpaceOnUse">
            <stop stop-color="#FFB800"/>
            <stop offset="1" stop-color="#F8367C"/>
        </linearGradient>
        <linearGradient id="paint17_linear_61_4313" x1="23.953" y1="52.4053" x2="23.953" y2="11.4083" gradientUnits="userSpaceOnUse">
            <stop stop-color="white"/>
            <stop offset="0.22" stop-color="white" stop-opacity="0.76"/>
            <stop offset="0.6" stop-color="white" stop-opacity="0.36"/>
            <stop offset="0.87" stop-color="white" stop-opacity="0.1"/>
            <stop offset="1" stop-color="white" stop-opacity="0"/>
        </linearGradient>
        <linearGradient id="paint18_linear_61_4313" x1="23.962" y1="20.0155" x2="23.962" y2="44.0835" gradientUnits="userSpaceOnUse">
            <stop offset="0.214" stop-color="white" stop-opacity="0"/>
            <stop offset="1" stop-color="white"/>
        </linearGradient>
        <linearGradient id="paint19_linear_61_4313" x1="23.9619" y1="20.0155" x2="23.9619" y2="44.0835" gradientUnits="userSpaceOnUse">
            <stop offset="0.214" stop-color="white" stop-opacity="0"/>
            <stop offset="1" stop-color="white"/>
        </linearGradient>
        <linearGradient id="paint20_linear_61_4313" x1="33.0541" y1="-7.20085" x2="33.0541" y2="35.1051" gradientUnits="userSpaceOnUse">
            <stop offset="0.693" stop-color="white" stop-opacity="0"/>
            <stop offset="1" stop-color="white"/>
        </linearGradient>
        <linearGradient id="paint21_linear_61_4313" x1="33.0539" y1="-7.20043" x2="33.0539" y2="35.1056" gradientUnits="userSpaceOnUse">
            <stop offset="0.693" stop-color="white" stop-opacity="0"/>
            <stop offset="1" stop-color="white"/>
        </linearGradient>
        <linearGradient id="paint22_linear_61_4313" x1="14.8611" y1="-7.19502" x2="14.8611" y2="35.114" gradientUnits="userSpaceOnUse">
            <stop offset="0.693" stop-color="white" stop-opacity="0"/>
            <stop offset="1" stop-color="white"/>
        </linearGradient>
        <linearGradient id="paint23_linear_61_4313" x1="14.861" y1="-7.19571" x2="14.861" y2="35.1133" gradientUnits="userSpaceOnUse">
            <stop offset="0.693" stop-color="white" stop-opacity="0"/>
            <stop offset="1" stop-color="white"/>
        </linearGradient>
        <linearGradient id="paint24_linear_61_4313" x1="10.0012" y1="46.1014" x2="4.08418" y2="27.0984" gradientUnits="userSpaceOnUse">
            <stop stop-color="white"/>
            <stop offset="1" stop-color="white" stop-opacity="0"/>
        </linearGradient>
        <linearGradient id="paint25_linear_61_4313" x1="14.0012" y1="16.6014" x2="13.4972" y2="31.1014" gradientUnits="userSpaceOnUse">
            <stop stop-color="white"/>
            <stop offset="1" stop-color="white" stop-opacity="0"/>
        </linearGradient>
        <linearGradient id="paint26_linear_61_4313" x1="38.0001" y1="37.6013" x2="21.4921" y2="24.1103" gradientUnits="userSpaceOnUse">
            <stop stop-color="white"/>
            <stop offset="1" stop-color="white" stop-opacity="0"/>
        </linearGradient>
        <linearGradient id="paint27_linear_61_4313" x1="25.0001" y1="28.1013" x2="34.0041" y2="34.0963" gradientUnits="userSpaceOnUse">
            <stop stop-color="white"/>
            <stop offset="1" stop-color="white" stop-opacity="0"/>
        </linearGradient>
        <linearGradient id="paint28_linear_61_4313" x1="23.9521" y1="-7.58672" x2="23.9521" y2="24.6013" gradientUnits="userSpaceOnUse">
            <stop stop-color="white"/>
            <stop offset="1" stop-color="white" stop-opacity="0"/>
        </linearGradient>
        <clipPath id="clip0_61_4313">
            <rect width="48" height="48" fill="white" transform="translate(0 0.601562)"/>
        </clipPath>
        <clipPath id="clip1_61_4313">
            <rect width="48" height="48" fill="white" transform="translate(0 0.601562)"/>
        </clipPath>
    </defs>
</svg>
