<svg width="180" height="73" viewBox="0 0 180 73" fill="none" xmlns="http://www.w3.org/2000/svg">
    <g clip-path="url(#clip0_61_2874)">
        <mask id="mask0_61_2874" style="mask-type:luminance" maskUnits="userSpaceOnUse" x="37" y="19" width="106" height="32">
            <path d="M37 19H143V51H37V19Z" fill="white"/>
        </mask>
        <g mask="url(#mask0_61_2874)">
            <path fill-rule="evenodd" clip-rule="evenodd" d="M140.825 49.7346C140.656 49.7336 140.488 49.6992 140.332 49.6333C140.176 49.5674 140.034 49.4713 139.915 49.3506C139.674 49.1043 139.538 48.7735 139.536 48.4286C139.551 48.0926 139.693 47.7756 139.933 47.5426C140.172 47.3109 140.492 47.1814 140.825 47.1814C141.158 47.1814 141.478 47.3109 141.717 47.5426C141.957 47.7756 142.099 48.0926 142.114 48.4286C142.116 48.7725 141.981 49.103 141.739 49.3478C141.498 49.5926 141.169 49.7317 140.825 49.7346ZM140.825 46.8846C139.98 46.8846 139.295 47.5716 139.295 48.4286C139.295 49.2876 139.98 49.9586 140.825 49.9586C141.673 49.9586 142.357 49.2866 142.357 48.4286C142.357 47.5716 141.671 46.8846 140.825 46.8846ZM140.536 48.3136V47.8176H140.819C140.98 47.8176 141.161 47.8676 141.161 48.0556C141.161 48.2656 140.96 48.3136 140.785 48.3136H140.536ZM141.47 48.0606C141.47 47.6886 141.155 47.5506 140.833 47.5506H140.23V49.2916H140.536V48.5646H140.758L141.162 49.2926H141.538L141.073 48.5306C141.317 48.4776 141.47 48.3116 141.47 48.0606ZM131.832 25.9926C132.25 26.0014 132.664 25.9257 133.052 25.77C133.439 25.6143 133.791 25.3818 134.086 25.0866C134.536 24.6393 134.842 24.0681 134.966 23.446C135.09 22.8239 135.026 22.179 134.781 21.5936C134.622 21.2057 134.387 20.8537 134.09 20.5582C133.793 20.2628 133.439 20.03 133.05 19.8736C132.477 19.6427 131.848 19.5887 131.244 19.7184C130.64 19.8482 130.089 20.1558 129.661 20.6016C129.086 21.1975 128.765 21.9935 128.766 22.8216C128.766 23.6516 129.087 24.4486 129.661 25.0416C130.231 25.6327 131.011 25.9753 131.832 25.9926ZM123.436 28.7306V33.3826H129.241V49.7366H134.422V33.3826H140.228V28.7296H123.436V28.7306ZM78.2412 25.9926C78.6533 25.9929 79.0614 25.9109 79.4414 25.7514C79.8214 25.5919 80.1658 25.358 80.4542 25.0636C81.0403 24.4643 81.3686 23.6593 81.3686 22.8211C81.3686 21.9828 81.0403 21.1778 80.4542 20.5786C80.1657 20.2843 79.8213 20.0506 79.4413 19.8913C79.0613 19.7319 78.6532 19.6501 78.2412 19.6506C77.4198 19.6678 76.6386 20.0093 76.0682 20.6006C75.4933 21.1965 75.1723 21.9925 75.1732 22.8206C75.1732 23.6516 75.4952 24.4486 76.0682 25.0406C76.6383 25.6326 77.4195 25.9748 78.2412 25.9926ZM69.8432 33.3806H75.6502V49.7366H80.8292V33.3826H86.6372V28.7296H69.8442V33.3796L69.8432 33.3806ZM114.625 49.7366H119.806V28.7436H114.626L114.625 49.7366ZM104.143 40.2896C104.143 43.0896 102.587 45.9746 99.3082 45.9746C95.9852 45.9746 95.4242 42.8706 95.4242 40.3766V28.7436H90.2442V41.8636C90.2442 46.1516 92.4872 50.3496 97.8842 50.3496C100.948 50.3496 103.409 48.4676 104.315 46.3686H104.401V49.7366H109.322V28.7436H104.143V40.2896ZM59.5652 28.1306C56.5002 28.1306 54.0402 30.0116 53.1342 32.1106H53.0472V28.7436H48.1272V49.7366H53.3062V38.1896C53.3062 35.3896 54.8612 32.5036 58.1412 32.5036C61.4642 32.5036 62.0262 35.6086 62.0262 38.1016V49.7356H67.2052V36.6136C67.2052 32.3286 64.9622 28.1306 59.5652 28.1306ZM37.6402 49.7366H42.8192V28.7436H37.6392L37.6402 49.7366Z" fill="#0D0D12"/>
        </g>
    </g>
    <defs>
        <clipPath id="clip0_61_2874">
            <rect width="180" height="71.8039" fill="white" transform="translate(0 0.893555)"/>
        </clipPath>
    </defs>
</svg>
