<svg width="129" height="27" viewBox="0 0 129 28" fill="none" xmlns="http://www.w3.org/2000/svg">
    <path d="M8.94688 3.536C11.3149 3.536 13.3842 4.00533 15.1549 4.944C16.9255 5.88267 18.2909 7.20533 19.2509 8.912C20.2322 10.5973 20.7229 12.5493 20.7229 14.768C20.7229 16.9653 20.2322 18.9173 19.2509 20.624C18.2909 22.3307 16.9149 23.6533 15.1229 24.592C13.3522 25.5307 11.2935 26 8.94688 26H0.530875V3.536H8.94688ZM8.59488 21.264C10.6642 21.264 12.2749 20.6987 13.4269 19.568C14.5789 18.4373 15.1549 16.8373 15.1549 14.768C15.1549 12.6987 14.5789 11.088 13.4269 9.936C12.2749 8.784 10.6642 8.208 8.59488 8.208H6.00288V21.264H8.59488ZM26.5329 6.288C25.5729 6.288 24.7835 6.01067 24.1649 5.456C23.5675 4.88 23.2689 4.176 23.2689 3.344C23.2689 2.49067 23.5675 1.78667 24.1649 1.232C24.7835 0.655998 25.5729 0.367998 26.5329 0.367998C27.4715 0.367998 28.2395 0.655998 28.8369 1.232C29.4555 1.78667 29.7649 2.49067 29.7649 3.344C29.7649 4.176 29.4555 4.88 28.8369 5.456C28.2395 6.01067 27.4715 6.288 26.5329 6.288ZM29.2529 8.144V26H23.7809V8.144H29.2529ZM32.1304 17.04C32.1304 15.2053 32.4717 13.5947 33.1544 12.208C33.8584 10.8213 34.8077 9.75467 36.0024 9.008C37.197 8.26133 38.5304 7.888 40.0024 7.888C41.261 7.888 42.3597 8.144 43.2984 8.656C44.2584 9.168 44.9944 9.84 45.5064 10.672V8.144H50.9784V26H45.5064V23.472C44.973 24.304 44.2264 24.976 43.2664 25.488C42.3277 26 41.229 26.256 39.9704 26.256C38.5197 26.256 37.197 25.8827 36.0024 25.136C34.8077 24.368 33.8584 23.2907 33.1544 21.904C32.4717 20.496 32.1304 18.8747 32.1304 17.04ZM45.5064 17.072C45.5064 15.7067 45.1224 14.6293 44.3544 13.84C43.6077 13.0507 42.6904 12.656 41.6024 12.656C40.5144 12.656 39.5864 13.0507 38.8184 13.84C38.0717 14.608 37.6984 15.6747 37.6984 17.04C37.6984 18.4053 38.0717 19.4933 38.8184 20.304C39.5864 21.0933 40.5144 21.488 41.6024 21.488C42.6904 21.488 43.6077 21.0933 44.3544 20.304C45.1224 19.5147 45.5064 18.4373 45.5064 17.072ZM60.4091 2.32V26H54.9371V2.32H60.4091ZM67.1266 6.288C66.1666 6.288 65.3773 6.01067 64.7586 5.456C64.1613 4.88 63.8626 4.176 63.8626 3.344C63.8626 2.49067 64.1613 1.78667 64.7586 1.232C65.3773 0.655998 66.1666 0.367998 67.1266 0.367998C68.0653 0.367998 68.8333 0.655998 69.4306 1.232C70.0493 1.78667 70.3586 2.49067 70.3586 3.344C70.3586 4.176 70.0493 4.88 69.4306 5.456C68.8333 6.01067 68.0653 6.288 67.1266 6.288ZM69.8466 8.144V26H64.3746V8.144H69.8466ZM84.3721 26L80.9481 21.04L78.0681 26H72.1481L78.0361 16.88L71.9881 8.144H78.1321L81.5561 13.072L84.4361 8.144H90.3561L84.3721 17.136L90.5161 26H84.3721Z" fill="black"/>
    <path d="M113.39 22.032H105.006L103.662 26H97.9339L106.062 3.536H112.398L120.526 26H114.734L113.39 22.032ZM111.982 17.808L109.198 9.584L106.446 17.808H111.982ZM128.472 3.536V26H123V3.536H128.472Z" fill="#1C5197"/>
</svg>